<mxfile host="app.diagrams.net" agent="Mozilla/5.0 (Windows NT 10.0; Win64; x64) AppleWebKit/537.36 (KHTML, like Gecko) Chrome/131.0.0.0 Safari/537.36" version="25.0.1">
  <diagram name="Page-1" id="WyU8PCR8jcuqvT5fNXiH">
    <mxGraphModel dx="3407" dy="2167" grid="1" gridSize="10" guides="1" tooltips="1" connect="1" arrows="0" fold="1" page="0" pageScale="1" pageWidth="850" pageHeight="1100" math="0" shadow="0">
      <root>
        <mxCell id="0" />
        <mxCell id="1" parent="0" />
        <mxCell id="yAPlAW5QqEgTK1_JW3Vs-49" value="HOTELS&lt;div&gt;EXTRAS&lt;/div&gt;" style="shape=associativeEntity;whiteSpace=wrap;html=1;align=center;" vertex="1" parent="1">
          <mxGeometry x="1010" y="-220" width="140" height="60" as="geometry" />
        </mxCell>
        <mxCell id="yAPlAW5QqEgTK1_JW3Vs-121" value="" style="group" vertex="1" connectable="0" parent="1">
          <mxGeometry x="1190" y="-360" width="320" height="150" as="geometry" />
        </mxCell>
        <mxCell id="yAPlAW5QqEgTK1_JW3Vs-2" value="EXTRAS" style="whiteSpace=wrap;html=1;align=center;" vertex="1" parent="yAPlAW5QqEgTK1_JW3Vs-121">
          <mxGeometry x="90" y="110" width="100" height="40" as="geometry" />
        </mxCell>
        <mxCell id="yAPlAW5QqEgTK1_JW3Vs-28" style="edgeStyle=none;rounded=0;orthogonalLoop=1;jettySize=auto;html=1;exitX=0.5;exitY=1;exitDx=0;exitDy=0;entryX=0;entryY=0;entryDx=0;entryDy=0;" edge="1" parent="yAPlAW5QqEgTK1_JW3Vs-121" source="yAPlAW5QqEgTK1_JW3Vs-24" target="yAPlAW5QqEgTK1_JW3Vs-2">
          <mxGeometry relative="1" as="geometry" />
        </mxCell>
        <mxCell id="yAPlAW5QqEgTK1_JW3Vs-24" value="ID" style="ellipse;whiteSpace=wrap;html=1;align=center;fontStyle=4;" vertex="1" parent="yAPlAW5QqEgTK1_JW3Vs-121">
          <mxGeometry y="10" width="100" height="40" as="geometry" />
        </mxCell>
        <mxCell id="yAPlAW5QqEgTK1_JW3Vs-29" style="edgeStyle=none;rounded=0;orthogonalLoop=1;jettySize=auto;html=1;exitX=0.5;exitY=1;exitDx=0;exitDy=0;entryX=0.5;entryY=0;entryDx=0;entryDy=0;" edge="1" parent="yAPlAW5QqEgTK1_JW3Vs-121" source="yAPlAW5QqEgTK1_JW3Vs-25" target="yAPlAW5QqEgTK1_JW3Vs-2">
          <mxGeometry relative="1" as="geometry" />
        </mxCell>
        <mxCell id="yAPlAW5QqEgTK1_JW3Vs-25" value="NAME" style="ellipse;whiteSpace=wrap;html=1;align=center;" vertex="1" parent="yAPlAW5QqEgTK1_JW3Vs-121">
          <mxGeometry x="120" width="100" height="40" as="geometry" />
        </mxCell>
        <mxCell id="yAPlAW5QqEgTK1_JW3Vs-30" style="edgeStyle=none;rounded=0;orthogonalLoop=1;jettySize=auto;html=1;exitX=0.5;exitY=1;exitDx=0;exitDy=0;entryX=1;entryY=0;entryDx=0;entryDy=0;" edge="1" parent="yAPlAW5QqEgTK1_JW3Vs-121" source="yAPlAW5QqEgTK1_JW3Vs-26" target="yAPlAW5QqEgTK1_JW3Vs-2">
          <mxGeometry relative="1" as="geometry" />
        </mxCell>
        <mxCell id="yAPlAW5QqEgTK1_JW3Vs-26" value="DESCRIPTION" style="ellipse;whiteSpace=wrap;html=1;align=center;" vertex="1" parent="yAPlAW5QqEgTK1_JW3Vs-121">
          <mxGeometry x="220" y="20" width="100" height="40" as="geometry" />
        </mxCell>
        <mxCell id="yAPlAW5QqEgTK1_JW3Vs-122" value="" style="group" vertex="1" connectable="0" parent="1">
          <mxGeometry x="660" y="-480" width="520" height="180" as="geometry" />
        </mxCell>
        <mxCell id="yAPlAW5QqEgTK1_JW3Vs-3" value="HOTELS" style="whiteSpace=wrap;html=1;align=center;strokeColor=default;" vertex="1" parent="yAPlAW5QqEgTK1_JW3Vs-122">
          <mxGeometry x="200" y="140" width="100" height="40" as="geometry" />
        </mxCell>
        <mxCell id="yAPlAW5QqEgTK1_JW3Vs-43" style="edgeStyle=none;rounded=0;orthogonalLoop=1;jettySize=auto;html=1;exitX=0.5;exitY=1;exitDx=0;exitDy=0;entryX=0;entryY=0;entryDx=0;entryDy=0;endArrow=none;endFill=0;" edge="1" parent="yAPlAW5QqEgTK1_JW3Vs-122" source="yAPlAW5QqEgTK1_JW3Vs-31" target="yAPlAW5QqEgTK1_JW3Vs-3">
          <mxGeometry relative="1" as="geometry" />
        </mxCell>
        <mxCell id="yAPlAW5QqEgTK1_JW3Vs-31" value="NAME" style="ellipse;whiteSpace=wrap;html=1;align=center;" vertex="1" parent="yAPlAW5QqEgTK1_JW3Vs-122">
          <mxGeometry x="50" y="60" width="100" height="40" as="geometry" />
        </mxCell>
        <mxCell id="yAPlAW5QqEgTK1_JW3Vs-44" style="edgeStyle=none;rounded=0;orthogonalLoop=1;jettySize=auto;html=1;exitX=0.5;exitY=1;exitDx=0;exitDy=0;entryX=0.25;entryY=0;entryDx=0;entryDy=0;strokeColor=default;endArrow=none;endFill=0;" edge="1" parent="yAPlAW5QqEgTK1_JW3Vs-122" source="yAPlAW5QqEgTK1_JW3Vs-32" target="yAPlAW5QqEgTK1_JW3Vs-3">
          <mxGeometry relative="1" as="geometry" />
        </mxCell>
        <mxCell id="yAPlAW5QqEgTK1_JW3Vs-32" value="ADDRESS" style="ellipse;whiteSpace=wrap;html=1;align=center;" vertex="1" parent="yAPlAW5QqEgTK1_JW3Vs-122">
          <mxGeometry x="120" y="20" width="100" height="40" as="geometry" />
        </mxCell>
        <mxCell id="yAPlAW5QqEgTK1_JW3Vs-45" style="edgeStyle=none;rounded=0;orthogonalLoop=1;jettySize=auto;html=1;exitX=0.5;exitY=1;exitDx=0;exitDy=0;entryX=0.5;entryY=0;entryDx=0;entryDy=0;endArrow=none;endFill=0;" edge="1" parent="yAPlAW5QqEgTK1_JW3Vs-122" source="yAPlAW5QqEgTK1_JW3Vs-33" target="yAPlAW5QqEgTK1_JW3Vs-3">
          <mxGeometry relative="1" as="geometry" />
        </mxCell>
        <mxCell id="yAPlAW5QqEgTK1_JW3Vs-33" value="CITY" style="ellipse;whiteSpace=wrap;html=1;align=center;" vertex="1" parent="yAPlAW5QqEgTK1_JW3Vs-122">
          <mxGeometry x="220" width="100" height="40" as="geometry" />
        </mxCell>
        <mxCell id="yAPlAW5QqEgTK1_JW3Vs-46" style="edgeStyle=none;rounded=0;orthogonalLoop=1;jettySize=auto;html=1;exitX=0.5;exitY=1;exitDx=0;exitDy=0;entryX=0.75;entryY=0;entryDx=0;entryDy=0;strokeColor=default;endArrow=none;endFill=0;" edge="1" parent="yAPlAW5QqEgTK1_JW3Vs-122" source="yAPlAW5QqEgTK1_JW3Vs-34" target="yAPlAW5QqEgTK1_JW3Vs-3">
          <mxGeometry relative="1" as="geometry" />
        </mxCell>
        <mxCell id="yAPlAW5QqEgTK1_JW3Vs-34" value="COUNTRY" style="ellipse;whiteSpace=wrap;html=1;align=center;" vertex="1" parent="yAPlAW5QqEgTK1_JW3Vs-122">
          <mxGeometry x="320" y="10" width="100" height="40" as="geometry" />
        </mxCell>
        <mxCell id="yAPlAW5QqEgTK1_JW3Vs-47" style="edgeStyle=none;rounded=0;orthogonalLoop=1;jettySize=auto;html=1;exitX=0.5;exitY=1;exitDx=0;exitDy=0;entryX=1;entryY=0;entryDx=0;entryDy=0;strokeColor=default;endArrow=none;endFill=0;" edge="1" parent="yAPlAW5QqEgTK1_JW3Vs-122" source="yAPlAW5QqEgTK1_JW3Vs-35" target="yAPlAW5QqEgTK1_JW3Vs-3">
          <mxGeometry relative="1" as="geometry" />
        </mxCell>
        <mxCell id="yAPlAW5QqEgTK1_JW3Vs-35" value="REVIEW_RATING" style="ellipse;whiteSpace=wrap;html=1;align=center;strokeColor=default;" vertex="1" parent="yAPlAW5QqEgTK1_JW3Vs-122">
          <mxGeometry x="380" y="50" width="110" height="40" as="geometry" />
        </mxCell>
        <mxCell id="yAPlAW5QqEgTK1_JW3Vs-48" style="edgeStyle=none;rounded=0;orthogonalLoop=1;jettySize=auto;html=1;exitX=0.5;exitY=1;exitDx=0;exitDy=0;entryX=1;entryY=0.5;entryDx=0;entryDy=0;strokeColor=default;endArrow=none;endFill=0;" edge="1" parent="yAPlAW5QqEgTK1_JW3Vs-122" source="yAPlAW5QqEgTK1_JW3Vs-36" target="yAPlAW5QqEgTK1_JW3Vs-3">
          <mxGeometry relative="1" as="geometry" />
        </mxCell>
        <mxCell id="yAPlAW5QqEgTK1_JW3Vs-36" value="DESCRIPTION" style="ellipse;whiteSpace=wrap;html=1;align=center;strokeColor=default;" vertex="1" parent="yAPlAW5QqEgTK1_JW3Vs-122">
          <mxGeometry x="420" y="100" width="100" height="40" as="geometry" />
        </mxCell>
        <mxCell id="yAPlAW5QqEgTK1_JW3Vs-42" style="edgeStyle=none;rounded=0;orthogonalLoop=1;jettySize=auto;html=1;exitX=0.5;exitY=1;exitDx=0;exitDy=0;entryX=0;entryY=0.5;entryDx=0;entryDy=0;endArrow=none;endFill=0;" edge="1" parent="yAPlAW5QqEgTK1_JW3Vs-122" source="yAPlAW5QqEgTK1_JW3Vs-40" target="yAPlAW5QqEgTK1_JW3Vs-3">
          <mxGeometry relative="1" as="geometry" />
        </mxCell>
        <mxCell id="yAPlAW5QqEgTK1_JW3Vs-40" value="ID" style="ellipse;whiteSpace=wrap;html=1;align=center;fontStyle=4;" vertex="1" parent="yAPlAW5QqEgTK1_JW3Vs-122">
          <mxGeometry y="100" width="100" height="40" as="geometry" />
        </mxCell>
        <mxCell id="yAPlAW5QqEgTK1_JW3Vs-123" value="" style="group" vertex="1" connectable="0" parent="1">
          <mxGeometry x="250" y="-600" width="450" height="210" as="geometry" />
        </mxCell>
        <mxCell id="yAPlAW5QqEgTK1_JW3Vs-67" value="ROOMS" style="shape=ext;margin=3;double=1;whiteSpace=wrap;html=1;align=center;" vertex="1" parent="yAPlAW5QqEgTK1_JW3Vs-123">
          <mxGeometry x="170" y="170" width="100" height="40" as="geometry" />
        </mxCell>
        <mxCell id="yAPlAW5QqEgTK1_JW3Vs-78" style="edgeStyle=none;rounded=0;orthogonalLoop=1;jettySize=auto;html=1;exitX=0.5;exitY=1;exitDx=0;exitDy=0;endArrow=none;endFill=0;" edge="1" parent="yAPlAW5QqEgTK1_JW3Vs-123" source="yAPlAW5QqEgTK1_JW3Vs-89" target="yAPlAW5QqEgTK1_JW3Vs-67">
          <mxGeometry relative="1" as="geometry">
            <mxPoint x="60" y="180" as="sourcePoint" />
          </mxGeometry>
        </mxCell>
        <mxCell id="yAPlAW5QqEgTK1_JW3Vs-80" style="edgeStyle=none;rounded=0;orthogonalLoop=1;jettySize=auto;html=1;exitX=0.5;exitY=1;exitDx=0;exitDy=0;entryX=0.25;entryY=0;entryDx=0;entryDy=0;endArrow=none;endFill=0;" edge="1" parent="yAPlAW5QqEgTK1_JW3Vs-123" source="yAPlAW5QqEgTK1_JW3Vs-71" target="yAPlAW5QqEgTK1_JW3Vs-67">
          <mxGeometry relative="1" as="geometry" />
        </mxCell>
        <mxCell id="yAPlAW5QqEgTK1_JW3Vs-71" value="ROOM_TYPE" style="ellipse;whiteSpace=wrap;html=1;align=center;" vertex="1" parent="yAPlAW5QqEgTK1_JW3Vs-123">
          <mxGeometry x="90" y="50" width="100" height="40" as="geometry" />
        </mxCell>
        <mxCell id="yAPlAW5QqEgTK1_JW3Vs-81" style="edgeStyle=none;rounded=0;orthogonalLoop=1;jettySize=auto;html=1;exitX=0.5;exitY=1;exitDx=0;exitDy=0;entryX=0.5;entryY=0;entryDx=0;entryDy=0;endArrow=none;endFill=0;" edge="1" parent="yAPlAW5QqEgTK1_JW3Vs-123" source="yAPlAW5QqEgTK1_JW3Vs-72" target="yAPlAW5QqEgTK1_JW3Vs-67">
          <mxGeometry relative="1" as="geometry" />
        </mxCell>
        <mxCell id="yAPlAW5QqEgTK1_JW3Vs-72" value="PRICE_PER_NIGHT" style="ellipse;whiteSpace=wrap;html=1;align=center;" vertex="1" parent="yAPlAW5QqEgTK1_JW3Vs-123">
          <mxGeometry x="140" width="140" height="40" as="geometry" />
        </mxCell>
        <mxCell id="yAPlAW5QqEgTK1_JW3Vs-73" value="AVAILABLE" style="ellipse;whiteSpace=wrap;html=1;align=center;" vertex="1" parent="yAPlAW5QqEgTK1_JW3Vs-123">
          <mxGeometry x="280" y="10" width="100" height="40" as="geometry" />
        </mxCell>
        <mxCell id="yAPlAW5QqEgTK1_JW3Vs-85" style="edgeStyle=none;rounded=0;orthogonalLoop=1;jettySize=auto;html=1;exitX=0;exitY=0.5;exitDx=0;exitDy=0;entryX=0.75;entryY=0;entryDx=0;entryDy=0;endArrow=none;endFill=0;" edge="1" parent="yAPlAW5QqEgTK1_JW3Vs-123" source="yAPlAW5QqEgTK1_JW3Vs-74" target="yAPlAW5QqEgTK1_JW3Vs-67">
          <mxGeometry relative="1" as="geometry" />
        </mxCell>
        <mxCell id="yAPlAW5QqEgTK1_JW3Vs-74" value="MAX_OCCUPANCY" style="ellipse;whiteSpace=wrap;html=1;align=center;" vertex="1" parent="yAPlAW5QqEgTK1_JW3Vs-123">
          <mxGeometry x="320" y="60" width="130" height="40" as="geometry" />
        </mxCell>
        <mxCell id="yAPlAW5QqEgTK1_JW3Vs-75" value="ALLOW_CHILDREN" style="ellipse;whiteSpace=wrap;html=1;align=center;" vertex="1" parent="yAPlAW5QqEgTK1_JW3Vs-123">
          <mxGeometry x="320" y="110" width="130" height="40" as="geometry" />
        </mxCell>
        <mxCell id="yAPlAW5QqEgTK1_JW3Vs-87" style="edgeStyle=none;rounded=0;orthogonalLoop=1;jettySize=auto;html=1;exitX=0;exitY=0.5;exitDx=0;exitDy=0;entryX=1;entryY=0.25;entryDx=0;entryDy=0;endArrow=none;endFill=0;" edge="1" parent="yAPlAW5QqEgTK1_JW3Vs-123" source="yAPlAW5QqEgTK1_JW3Vs-76" target="yAPlAW5QqEgTK1_JW3Vs-67">
          <mxGeometry relative="1" as="geometry" />
        </mxCell>
        <mxCell id="yAPlAW5QqEgTK1_JW3Vs-76" value="ALLOW_PETS" style="ellipse;whiteSpace=wrap;html=1;align=center;" vertex="1" parent="yAPlAW5QqEgTK1_JW3Vs-123">
          <mxGeometry x="310" y="160" width="130" height="40" as="geometry" />
        </mxCell>
        <mxCell id="yAPlAW5QqEgTK1_JW3Vs-79" style="edgeStyle=none;rounded=0;orthogonalLoop=1;jettySize=auto;html=1;exitX=0.5;exitY=1;exitDx=0;exitDy=0;entryX=0.095;entryY=0.037;entryDx=0;entryDy=0;entryPerimeter=0;endArrow=none;endFill=0;" edge="1" parent="yAPlAW5QqEgTK1_JW3Vs-123" source="yAPlAW5QqEgTK1_JW3Vs-94" target="yAPlAW5QqEgTK1_JW3Vs-67">
          <mxGeometry relative="1" as="geometry">
            <mxPoint x="100" y="140" as="sourcePoint" />
          </mxGeometry>
        </mxCell>
        <mxCell id="yAPlAW5QqEgTK1_JW3Vs-84" style="edgeStyle=none;rounded=0;orthogonalLoop=1;jettySize=auto;html=1;exitX=0;exitY=1;exitDx=0;exitDy=0;entryX=0.589;entryY=0.007;entryDx=0;entryDy=0;entryPerimeter=0;endArrow=none;endFill=0;" edge="1" parent="yAPlAW5QqEgTK1_JW3Vs-123" source="yAPlAW5QqEgTK1_JW3Vs-73" target="yAPlAW5QqEgTK1_JW3Vs-67">
          <mxGeometry relative="1" as="geometry" />
        </mxCell>
        <mxCell id="yAPlAW5QqEgTK1_JW3Vs-86" style="edgeStyle=none;rounded=0;orthogonalLoop=1;jettySize=auto;html=1;exitX=0;exitY=0.5;exitDx=0;exitDy=0;entryX=0.918;entryY=-0.051;entryDx=0;entryDy=0;entryPerimeter=0;endArrow=none;endFill=0;" edge="1" parent="yAPlAW5QqEgTK1_JW3Vs-123" source="yAPlAW5QqEgTK1_JW3Vs-75" target="yAPlAW5QqEgTK1_JW3Vs-67">
          <mxGeometry relative="1" as="geometry" />
        </mxCell>
        <mxCell id="yAPlAW5QqEgTK1_JW3Vs-89" value="ID" style="ellipse;whiteSpace=wrap;html=1;align=center;fontStyle=4;" vertex="1" parent="yAPlAW5QqEgTK1_JW3Vs-123">
          <mxGeometry y="140" width="100" height="40" as="geometry" />
        </mxCell>
        <mxCell id="yAPlAW5QqEgTK1_JW3Vs-94" value="&lt;span style=&quot;border-bottom: 1px dotted&quot;&gt;HOTEL_ID&lt;/span&gt;" style="ellipse;whiteSpace=wrap;html=1;align=center;" vertex="1" parent="yAPlAW5QqEgTK1_JW3Vs-123">
          <mxGeometry x="40" y="100" width="100" height="40" as="geometry" />
        </mxCell>
        <mxCell id="yAPlAW5QqEgTK1_JW3Vs-124" value="" style="group" vertex="1" connectable="0" parent="1">
          <mxGeometry x="-590" y="-275" width="440" height="170" as="geometry" />
        </mxCell>
        <mxCell id="yAPlAW5QqEgTK1_JW3Vs-108" value="PAYMENTS" style="shape=ext;margin=3;double=1;whiteSpace=wrap;html=1;align=center;" vertex="1" parent="yAPlAW5QqEgTK1_JW3Vs-124">
          <mxGeometry x="170" y="130" width="100" height="40" as="geometry" />
        </mxCell>
        <mxCell id="yAPlAW5QqEgTK1_JW3Vs-115" style="edgeStyle=none;rounded=0;orthogonalLoop=1;jettySize=auto;html=1;exitX=1;exitY=1;exitDx=0;exitDy=0;entryX=0;entryY=0.25;entryDx=0;entryDy=0;endArrow=none;endFill=0;" edge="1" parent="yAPlAW5QqEgTK1_JW3Vs-124" source="yAPlAW5QqEgTK1_JW3Vs-110" target="yAPlAW5QqEgTK1_JW3Vs-108">
          <mxGeometry relative="1" as="geometry" />
        </mxCell>
        <mxCell id="yAPlAW5QqEgTK1_JW3Vs-110" value="ID" style="ellipse;whiteSpace=wrap;html=1;align=center;fontStyle=4;" vertex="1" parent="yAPlAW5QqEgTK1_JW3Vs-124">
          <mxGeometry y="90" width="100" height="40" as="geometry" />
        </mxCell>
        <mxCell id="yAPlAW5QqEgTK1_JW3Vs-111" value="&lt;span style=&quot;border-bottom: 1px dotted&quot;&gt;BOOKING_ID&lt;/span&gt;" style="ellipse;whiteSpace=wrap;html=1;align=center;" vertex="1" parent="yAPlAW5QqEgTK1_JW3Vs-124">
          <mxGeometry x="190" width="100" height="40" as="geometry" />
        </mxCell>
        <mxCell id="yAPlAW5QqEgTK1_JW3Vs-112" value="&lt;span style=&quot;border-bottom: 1px dotted&quot;&gt;USER_ID&lt;/span&gt;" style="ellipse;whiteSpace=wrap;html=1;align=center;" vertex="1" parent="yAPlAW5QqEgTK1_JW3Vs-124">
          <mxGeometry x="90" y="40" width="100" height="40" as="geometry" />
        </mxCell>
        <mxCell id="yAPlAW5QqEgTK1_JW3Vs-118" style="edgeStyle=none;rounded=0;orthogonalLoop=1;jettySize=auto;html=1;exitX=0.5;exitY=1;exitDx=0;exitDy=0;entryX=0.75;entryY=0;entryDx=0;entryDy=0;endArrow=none;endFill=0;" edge="1" parent="yAPlAW5QqEgTK1_JW3Vs-124" source="yAPlAW5QqEgTK1_JW3Vs-113" target="yAPlAW5QqEgTK1_JW3Vs-108">
          <mxGeometry relative="1" as="geometry" />
        </mxCell>
        <mxCell id="yAPlAW5QqEgTK1_JW3Vs-113" value="PAID_ON" style="ellipse;whiteSpace=wrap;html=1;align=center;" vertex="1" parent="yAPlAW5QqEgTK1_JW3Vs-124">
          <mxGeometry x="280" y="50" width="100" height="40" as="geometry" />
        </mxCell>
        <mxCell id="yAPlAW5QqEgTK1_JW3Vs-119" style="edgeStyle=none;rounded=0;orthogonalLoop=1;jettySize=auto;html=1;exitX=0;exitY=1;exitDx=0;exitDy=0;entryX=1;entryY=0.25;entryDx=0;entryDy=0;endArrow=none;endFill=0;" edge="1" parent="yAPlAW5QqEgTK1_JW3Vs-124" source="yAPlAW5QqEgTK1_JW3Vs-114" target="yAPlAW5QqEgTK1_JW3Vs-108">
          <mxGeometry relative="1" as="geometry" />
        </mxCell>
        <mxCell id="yAPlAW5QqEgTK1_JW3Vs-114" value="STATUS" style="ellipse;whiteSpace=wrap;html=1;align=center;" vertex="1" parent="yAPlAW5QqEgTK1_JW3Vs-124">
          <mxGeometry x="340" y="100" width="100" height="40" as="geometry" />
        </mxCell>
        <mxCell id="yAPlAW5QqEgTK1_JW3Vs-116" style="edgeStyle=none;rounded=0;orthogonalLoop=1;jettySize=auto;html=1;exitX=0.5;exitY=1;exitDx=0;exitDy=0;entryX=0.13;entryY=0.096;entryDx=0;entryDy=0;entryPerimeter=0;endArrow=none;endFill=0;" edge="1" parent="yAPlAW5QqEgTK1_JW3Vs-124" source="yAPlAW5QqEgTK1_JW3Vs-112" target="yAPlAW5QqEgTK1_JW3Vs-108">
          <mxGeometry relative="1" as="geometry" />
        </mxCell>
        <mxCell id="yAPlAW5QqEgTK1_JW3Vs-117" style="edgeStyle=none;rounded=0;orthogonalLoop=1;jettySize=auto;html=1;exitX=0.5;exitY=1;exitDx=0;exitDy=0;entryX=0.412;entryY=0.096;entryDx=0;entryDy=0;entryPerimeter=0;endArrow=none;endFill=0;" edge="1" parent="yAPlAW5QqEgTK1_JW3Vs-124" source="yAPlAW5QqEgTK1_JW3Vs-111" target="yAPlAW5QqEgTK1_JW3Vs-108">
          <mxGeometry relative="1" as="geometry" />
        </mxCell>
        <mxCell id="yAPlAW5QqEgTK1_JW3Vs-125" value="" style="group" vertex="1" connectable="0" parent="1">
          <mxGeometry x="-140" y="-430" width="460" height="170" as="geometry" />
        </mxCell>
        <mxCell id="yAPlAW5QqEgTK1_JW3Vs-88" value="BOOKINGS" style="shape=ext;margin=3;double=1;whiteSpace=wrap;html=1;align=center;" vertex="1" parent="yAPlAW5QqEgTK1_JW3Vs-125">
          <mxGeometry x="180" y="130" width="100" height="40" as="geometry" />
        </mxCell>
        <mxCell id="yAPlAW5QqEgTK1_JW3Vs-101" style="edgeStyle=none;rounded=0;orthogonalLoop=1;jettySize=auto;html=1;exitX=1;exitY=0.5;exitDx=0;exitDy=0;entryX=0;entryY=0.5;entryDx=0;entryDy=0;endArrow=none;endFill=0;" edge="1" parent="yAPlAW5QqEgTK1_JW3Vs-125" source="yAPlAW5QqEgTK1_JW3Vs-90" target="yAPlAW5QqEgTK1_JW3Vs-88">
          <mxGeometry relative="1" as="geometry" />
        </mxCell>
        <mxCell id="yAPlAW5QqEgTK1_JW3Vs-90" value="ID" style="ellipse;whiteSpace=wrap;html=1;align=center;fontStyle=4;" vertex="1" parent="yAPlAW5QqEgTK1_JW3Vs-125">
          <mxGeometry y="120" width="100" height="40" as="geometry" />
        </mxCell>
        <mxCell id="yAPlAW5QqEgTK1_JW3Vs-102" style="edgeStyle=none;rounded=0;orthogonalLoop=1;jettySize=auto;html=1;exitX=1;exitY=0.5;exitDx=0;exitDy=0;entryX=0;entryY=0;entryDx=0;entryDy=0;endArrow=none;endFill=0;" edge="1" parent="yAPlAW5QqEgTK1_JW3Vs-125" source="yAPlAW5QqEgTK1_JW3Vs-93" target="yAPlAW5QqEgTK1_JW3Vs-88">
          <mxGeometry relative="1" as="geometry" />
        </mxCell>
        <mxCell id="yAPlAW5QqEgTK1_JW3Vs-93" value="&lt;span style=&quot;border-bottom: 1px dotted&quot;&gt;ROOM_ID&lt;/span&gt;" style="ellipse;whiteSpace=wrap;html=1;align=center;" vertex="1" parent="yAPlAW5QqEgTK1_JW3Vs-125">
          <mxGeometry x="50" y="80" width="100" height="40" as="geometry" />
        </mxCell>
        <mxCell id="yAPlAW5QqEgTK1_JW3Vs-104" style="edgeStyle=none;rounded=0;orthogonalLoop=1;jettySize=auto;html=1;exitX=0.5;exitY=1;exitDx=0;exitDy=0;entryX=0.5;entryY=0;entryDx=0;entryDy=0;endArrow=none;endFill=0;" edge="1" parent="yAPlAW5QqEgTK1_JW3Vs-125" source="yAPlAW5QqEgTK1_JW3Vs-95" target="yAPlAW5QqEgTK1_JW3Vs-88">
          <mxGeometry relative="1" as="geometry" />
        </mxCell>
        <mxCell id="yAPlAW5QqEgTK1_JW3Vs-95" value="CHECK_OUT_DATE" style="ellipse;whiteSpace=wrap;html=1;align=center;" vertex="1" parent="yAPlAW5QqEgTK1_JW3Vs-125">
          <mxGeometry x="180" width="130" height="40" as="geometry" />
        </mxCell>
        <mxCell id="yAPlAW5QqEgTK1_JW3Vs-103" style="edgeStyle=none;rounded=0;orthogonalLoop=1;jettySize=auto;html=1;exitX=1;exitY=1;exitDx=0;exitDy=0;entryX=0.25;entryY=0;entryDx=0;entryDy=0;endArrow=none;endFill=0;" edge="1" parent="yAPlAW5QqEgTK1_JW3Vs-125" source="yAPlAW5QqEgTK1_JW3Vs-96" target="yAPlAW5QqEgTK1_JW3Vs-88">
          <mxGeometry relative="1" as="geometry" />
        </mxCell>
        <mxCell id="yAPlAW5QqEgTK1_JW3Vs-96" value="CHECK_IN_DATE" style="ellipse;whiteSpace=wrap;html=1;align=center;" vertex="1" parent="yAPlAW5QqEgTK1_JW3Vs-125">
          <mxGeometry x="110" y="40" width="100" height="40" as="geometry" />
        </mxCell>
        <mxCell id="yAPlAW5QqEgTK1_JW3Vs-105" style="edgeStyle=none;rounded=0;orthogonalLoop=1;jettySize=auto;html=1;exitX=0;exitY=1;exitDx=0;exitDy=0;entryX=0.75;entryY=0;entryDx=0;entryDy=0;endArrow=none;endFill=0;" edge="1" parent="yAPlAW5QqEgTK1_JW3Vs-125" source="yAPlAW5QqEgTK1_JW3Vs-98" target="yAPlAW5QqEgTK1_JW3Vs-88">
          <mxGeometry relative="1" as="geometry" />
        </mxCell>
        <mxCell id="yAPlAW5QqEgTK1_JW3Vs-98" value="ADDITIONAL_INFO" style="ellipse;whiteSpace=wrap;html=1;align=center;" vertex="1" parent="yAPlAW5QqEgTK1_JW3Vs-125">
          <mxGeometry x="290" y="30" width="130" height="40" as="geometry" />
        </mxCell>
        <mxCell id="yAPlAW5QqEgTK1_JW3Vs-106" style="edgeStyle=none;rounded=0;orthogonalLoop=1;jettySize=auto;html=1;exitX=0;exitY=0.5;exitDx=0;exitDy=0;entryX=1;entryY=0;entryDx=0;entryDy=0;endArrow=none;endFill=0;" edge="1" parent="yAPlAW5QqEgTK1_JW3Vs-125" source="yAPlAW5QqEgTK1_JW3Vs-99" target="yAPlAW5QqEgTK1_JW3Vs-88">
          <mxGeometry relative="1" as="geometry" />
        </mxCell>
        <mxCell id="yAPlAW5QqEgTK1_JW3Vs-99" value="TOTAL_PRICE" style="ellipse;whiteSpace=wrap;html=1;align=center;" vertex="1" parent="yAPlAW5QqEgTK1_JW3Vs-125">
          <mxGeometry x="350" y="80" width="100" height="40" as="geometry" />
        </mxCell>
        <mxCell id="yAPlAW5QqEgTK1_JW3Vs-107" style="edgeStyle=none;rounded=0;orthogonalLoop=1;jettySize=auto;html=1;exitX=0;exitY=0.5;exitDx=0;exitDy=0;entryX=1;entryY=0.5;entryDx=0;entryDy=0;endArrow=none;endFill=0;" edge="1" parent="yAPlAW5QqEgTK1_JW3Vs-125" source="yAPlAW5QqEgTK1_JW3Vs-100" target="yAPlAW5QqEgTK1_JW3Vs-88">
          <mxGeometry relative="1" as="geometry" />
        </mxCell>
        <mxCell id="yAPlAW5QqEgTK1_JW3Vs-100" value="BOOKING_STATUS" style="ellipse;whiteSpace=wrap;html=1;align=center;" vertex="1" parent="yAPlAW5QqEgTK1_JW3Vs-125">
          <mxGeometry x="340" y="130" width="120" height="40" as="geometry" />
        </mxCell>
        <mxCell id="yAPlAW5QqEgTK1_JW3Vs-126" value="" style="group" vertex="1" connectable="0" parent="1">
          <mxGeometry x="395" y="-195" width="380" height="170" as="geometry" />
        </mxCell>
        <mxCell id="yAPlAW5QqEgTK1_JW3Vs-51" value="REVIEWS" style="shape=ext;margin=3;double=1;whiteSpace=wrap;html=1;align=center;" vertex="1" parent="yAPlAW5QqEgTK1_JW3Vs-126">
          <mxGeometry x="140" y="130" width="100" height="40" as="geometry" />
        </mxCell>
        <mxCell id="yAPlAW5QqEgTK1_JW3Vs-61" style="edgeStyle=none;rounded=0;orthogonalLoop=1;jettySize=auto;html=1;exitX=0.5;exitY=1;exitDx=0;exitDy=0;entryX=0;entryY=0.5;entryDx=0;entryDy=0;endArrow=none;endFill=0;" edge="1" parent="yAPlAW5QqEgTK1_JW3Vs-126" source="yAPlAW5QqEgTK1_JW3Vs-52" target="yAPlAW5QqEgTK1_JW3Vs-51">
          <mxGeometry relative="1" as="geometry" />
        </mxCell>
        <mxCell id="yAPlAW5QqEgTK1_JW3Vs-52" value="ID" style="ellipse;whiteSpace=wrap;html=1;align=center;fontStyle=4;" vertex="1" parent="yAPlAW5QqEgTK1_JW3Vs-126">
          <mxGeometry y="90" width="100" height="40" as="geometry" />
        </mxCell>
        <mxCell id="yAPlAW5QqEgTK1_JW3Vs-63" style="edgeStyle=none;rounded=0;orthogonalLoop=1;jettySize=auto;html=1;exitX=0.5;exitY=1;exitDx=0;exitDy=0;entryX=0.25;entryY=0;entryDx=0;entryDy=0;endArrow=none;endFill=0;" edge="1" parent="yAPlAW5QqEgTK1_JW3Vs-126" source="yAPlAW5QqEgTK1_JW3Vs-53" target="yAPlAW5QqEgTK1_JW3Vs-51">
          <mxGeometry relative="1" as="geometry" />
        </mxCell>
        <mxCell id="yAPlAW5QqEgTK1_JW3Vs-53" value="&lt;span style=&quot;border-bottom: 1px dotted&quot;&gt;HOTEL_ID&lt;/span&gt;" style="ellipse;whiteSpace=wrap;html=1;align=center;" vertex="1" parent="yAPlAW5QqEgTK1_JW3Vs-126">
          <mxGeometry x="80" width="100" height="40" as="geometry" />
        </mxCell>
        <mxCell id="yAPlAW5QqEgTK1_JW3Vs-54" value="&lt;span style=&quot;border-bottom: 1px dotted&quot;&gt;USER_ID&lt;/span&gt;" style="ellipse;whiteSpace=wrap;html=1;align=center;" vertex="1" parent="yAPlAW5QqEgTK1_JW3Vs-126">
          <mxGeometry x="20" y="40" width="100" height="40" as="geometry" />
        </mxCell>
        <mxCell id="yAPlAW5QqEgTK1_JW3Vs-66" style="edgeStyle=none;rounded=0;orthogonalLoop=1;jettySize=auto;html=1;exitX=0.5;exitY=1;exitDx=0;exitDy=0;entryX=1;entryY=0.5;entryDx=0;entryDy=0;endArrow=none;endFill=0;" edge="1" parent="yAPlAW5QqEgTK1_JW3Vs-126" source="yAPlAW5QqEgTK1_JW3Vs-57" target="yAPlAW5QqEgTK1_JW3Vs-51">
          <mxGeometry relative="1" as="geometry" />
        </mxCell>
        <mxCell id="yAPlAW5QqEgTK1_JW3Vs-57" value="WRITTEN_ON" style="ellipse;whiteSpace=wrap;html=1;align=center;" vertex="1" parent="yAPlAW5QqEgTK1_JW3Vs-126">
          <mxGeometry x="280" y="90" width="100" height="40" as="geometry" />
        </mxCell>
        <mxCell id="yAPlAW5QqEgTK1_JW3Vs-58" value="RATING" style="ellipse;whiteSpace=wrap;html=1;align=center;" vertex="1" parent="yAPlAW5QqEgTK1_JW3Vs-126">
          <mxGeometry x="190" width="100" height="40" as="geometry" />
        </mxCell>
        <mxCell id="yAPlAW5QqEgTK1_JW3Vs-59" value="REVIEW_TEXT" style="ellipse;whiteSpace=wrap;html=1;align=center;" vertex="1" parent="yAPlAW5QqEgTK1_JW3Vs-126">
          <mxGeometry x="250" y="40" width="100" height="40" as="geometry" />
        </mxCell>
        <mxCell id="yAPlAW5QqEgTK1_JW3Vs-62" style="edgeStyle=none;rounded=0;orthogonalLoop=1;jettySize=auto;html=1;exitX=0.5;exitY=1;exitDx=0;exitDy=0;entryX=0.106;entryY=0.051;entryDx=0;entryDy=0;entryPerimeter=0;endArrow=none;endFill=0;" edge="1" parent="yAPlAW5QqEgTK1_JW3Vs-126" source="yAPlAW5QqEgTK1_JW3Vs-54" target="yAPlAW5QqEgTK1_JW3Vs-51">
          <mxGeometry relative="1" as="geometry" />
        </mxCell>
        <mxCell id="yAPlAW5QqEgTK1_JW3Vs-64" style="edgeStyle=none;rounded=0;orthogonalLoop=1;jettySize=auto;html=1;exitX=0.5;exitY=1;exitDx=0;exitDy=0;entryX=0.636;entryY=-0.066;entryDx=0;entryDy=0;entryPerimeter=0;endArrow=none;endFill=0;" edge="1" parent="yAPlAW5QqEgTK1_JW3Vs-126" source="yAPlAW5QqEgTK1_JW3Vs-58" target="yAPlAW5QqEgTK1_JW3Vs-51">
          <mxGeometry relative="1" as="geometry" />
        </mxCell>
        <mxCell id="yAPlAW5QqEgTK1_JW3Vs-65" style="edgeStyle=none;rounded=0;orthogonalLoop=1;jettySize=auto;html=1;exitX=0.5;exitY=1;exitDx=0;exitDy=0;entryX=0.906;entryY=-0.066;entryDx=0;entryDy=0;entryPerimeter=0;endArrow=none;endFill=0;" edge="1" parent="yAPlAW5QqEgTK1_JW3Vs-126" source="yAPlAW5QqEgTK1_JW3Vs-59" target="yAPlAW5QqEgTK1_JW3Vs-51">
          <mxGeometry relative="1" as="geometry" />
        </mxCell>
        <mxCell id="yAPlAW5QqEgTK1_JW3Vs-127" value="" style="group" vertex="1" connectable="0" parent="1">
          <mxGeometry x="-25" y="-20" width="420" height="180" as="geometry" />
        </mxCell>
        <mxCell id="yAPlAW5QqEgTK1_JW3Vs-1" value="USERS" style="whiteSpace=wrap;html=1;align=center;" vertex="1" parent="yAPlAW5QqEgTK1_JW3Vs-127">
          <mxGeometry x="160" y="140" width="100" height="40" as="geometry" />
        </mxCell>
        <mxCell id="yAPlAW5QqEgTK1_JW3Vs-4" value="FIRST_NAME" style="ellipse;whiteSpace=wrap;html=1;align=center;" vertex="1" parent="yAPlAW5QqEgTK1_JW3Vs-127">
          <mxGeometry x="80" y="30" width="100" height="40" as="geometry" />
        </mxCell>
        <mxCell id="yAPlAW5QqEgTK1_JW3Vs-16" style="edgeStyle=none;rounded=0;orthogonalLoop=1;jettySize=auto;html=1;exitX=0.5;exitY=1;exitDx=0;exitDy=0;endArrow=none;endFill=0;" edge="1" parent="yAPlAW5QqEgTK1_JW3Vs-127" source="yAPlAW5QqEgTK1_JW3Vs-8" target="yAPlAW5QqEgTK1_JW3Vs-1">
          <mxGeometry relative="1" as="geometry" />
        </mxCell>
        <mxCell id="yAPlAW5QqEgTK1_JW3Vs-8" value="LAST_NAME" style="ellipse;whiteSpace=wrap;html=1;align=center;" vertex="1" parent="yAPlAW5QqEgTK1_JW3Vs-127">
          <mxGeometry x="180" width="100" height="40" as="geometry" />
        </mxCell>
        <mxCell id="yAPlAW5QqEgTK1_JW3Vs-17" style="edgeStyle=none;rounded=0;orthogonalLoop=1;jettySize=auto;html=1;exitX=0.5;exitY=1;exitDx=0;exitDy=0;entryX=0.75;entryY=0;entryDx=0;entryDy=0;endArrow=none;endFill=0;" edge="1" parent="yAPlAW5QqEgTK1_JW3Vs-127" source="yAPlAW5QqEgTK1_JW3Vs-9" target="yAPlAW5QqEgTK1_JW3Vs-1">
          <mxGeometry relative="1" as="geometry" />
        </mxCell>
        <mxCell id="yAPlAW5QqEgTK1_JW3Vs-9" value="EMAIL" style="ellipse;whiteSpace=wrap;html=1;align=center;" vertex="1" parent="yAPlAW5QqEgTK1_JW3Vs-127">
          <mxGeometry x="270" y="40" width="100" height="40" as="geometry" />
        </mxCell>
        <mxCell id="yAPlAW5QqEgTK1_JW3Vs-18" style="edgeStyle=none;rounded=0;orthogonalLoop=1;jettySize=auto;html=1;exitX=0.5;exitY=1;exitDx=0;exitDy=0;entryX=1;entryY=0.25;entryDx=0;entryDy=0;endArrow=none;endFill=0;" edge="1" parent="yAPlAW5QqEgTK1_JW3Vs-127" source="yAPlAW5QqEgTK1_JW3Vs-10" target="yAPlAW5QqEgTK1_JW3Vs-1">
          <mxGeometry relative="1" as="geometry" />
        </mxCell>
        <mxCell id="yAPlAW5QqEgTK1_JW3Vs-10" value="PHONE_NUMBER" style="ellipse;whiteSpace=wrap;html=1;align=center;" vertex="1" parent="yAPlAW5QqEgTK1_JW3Vs-127">
          <mxGeometry x="310" y="90" width="110" height="40" as="geometry" />
        </mxCell>
        <mxCell id="yAPlAW5QqEgTK1_JW3Vs-15" style="edgeStyle=none;rounded=0;orthogonalLoop=1;jettySize=auto;html=1;exitX=0.5;exitY=1;exitDx=0;exitDy=0;entryX=0.142;entryY=0.037;entryDx=0;entryDy=0;entryPerimeter=0;endArrow=none;endFill=0;" edge="1" parent="yAPlAW5QqEgTK1_JW3Vs-127" source="yAPlAW5QqEgTK1_JW3Vs-4" target="yAPlAW5QqEgTK1_JW3Vs-1">
          <mxGeometry relative="1" as="geometry" />
        </mxCell>
        <mxCell id="yAPlAW5QqEgTK1_JW3Vs-23" style="edgeStyle=none;rounded=0;orthogonalLoop=1;jettySize=auto;html=1;exitX=0.5;exitY=1;exitDx=0;exitDy=0;entryX=0;entryY=0.5;entryDx=0;entryDy=0;endArrow=none;endFill=0;" edge="1" parent="yAPlAW5QqEgTK1_JW3Vs-127" source="yAPlAW5QqEgTK1_JW3Vs-19" target="yAPlAW5QqEgTK1_JW3Vs-1">
          <mxGeometry relative="1" as="geometry" />
        </mxCell>
        <mxCell id="yAPlAW5QqEgTK1_JW3Vs-19" value="ID" style="ellipse;whiteSpace=wrap;html=1;align=center;fontStyle=4;" vertex="1" parent="yAPlAW5QqEgTK1_JW3Vs-127">
          <mxGeometry y="70" width="100" height="40" as="geometry" />
        </mxCell>
        <mxCell id="yAPlAW5QqEgTK1_JW3Vs-132" value="" style="endArrow=none;html=1;rounded=0;dashed=1;dashPattern=1 2;exitX=0.5;exitY=1;exitDx=0;exitDy=0;entryX=0;entryY=0;entryDx=0;entryDy=0;" edge="1" parent="1" source="yAPlAW5QqEgTK1_JW3Vs-3" target="yAPlAW5QqEgTK1_JW3Vs-49">
          <mxGeometry relative="1" as="geometry">
            <mxPoint x="600" y="-280" as="sourcePoint" />
            <mxPoint x="760" y="-280" as="targetPoint" />
          </mxGeometry>
        </mxCell>
        <mxCell id="yAPlAW5QqEgTK1_JW3Vs-133" value="N" style="resizable=0;html=1;whiteSpace=wrap;align=right;verticalAlign=bottom;" connectable="0" vertex="1" parent="yAPlAW5QqEgTK1_JW3Vs-132">
          <mxGeometry x="1" relative="1" as="geometry" />
        </mxCell>
        <mxCell id="yAPlAW5QqEgTK1_JW3Vs-134" value="" style="endArrow=none;html=1;rounded=0;dashed=1;dashPattern=1 2;exitX=0.5;exitY=1;exitDx=0;exitDy=0;entryX=1;entryY=0;entryDx=0;entryDy=0;" edge="1" parent="1" source="yAPlAW5QqEgTK1_JW3Vs-2" target="yAPlAW5QqEgTK1_JW3Vs-49">
          <mxGeometry relative="1" as="geometry">
            <mxPoint x="600" y="-280" as="sourcePoint" />
            <mxPoint x="760" y="-280" as="targetPoint" />
          </mxGeometry>
        </mxCell>
        <mxCell id="yAPlAW5QqEgTK1_JW3Vs-135" value="N" style="resizable=0;html=1;whiteSpace=wrap;align=right;verticalAlign=bottom;" connectable="0" vertex="1" parent="yAPlAW5QqEgTK1_JW3Vs-134">
          <mxGeometry x="1" relative="1" as="geometry" />
        </mxCell>
        <mxCell id="yAPlAW5QqEgTK1_JW3Vs-139" value="" style="endArrow=none;html=1;rounded=0;entryX=0;entryY=1;entryDx=0;entryDy=0;exitX=1;exitY=0.5;exitDx=0;exitDy=0;" edge="1" parent="1" source="yAPlAW5QqEgTK1_JW3Vs-199" target="yAPlAW5QqEgTK1_JW3Vs-3">
          <mxGeometry relative="1" as="geometry">
            <mxPoint x="790" y="-320" as="sourcePoint" />
            <mxPoint x="620" y="-230" as="targetPoint" />
          </mxGeometry>
        </mxCell>
        <mxCell id="yAPlAW5QqEgTK1_JW3Vs-140" value="1" style="resizable=0;html=1;whiteSpace=wrap;align=right;verticalAlign=bottom;" connectable="0" vertex="1" parent="yAPlAW5QqEgTK1_JW3Vs-139">
          <mxGeometry x="1" relative="1" as="geometry" />
        </mxCell>
        <mxCell id="yAPlAW5QqEgTK1_JW3Vs-159" value="" style="endArrow=none;html=1;rounded=0;exitX=0;exitY=0.5;exitDx=0;exitDy=0;entryX=0.5;entryY=1;entryDx=0;entryDy=0;" edge="1" parent="1" source="yAPlAW5QqEgTK1_JW3Vs-199" target="yAPlAW5QqEgTK1_JW3Vs-67">
          <mxGeometry relative="1" as="geometry">
            <mxPoint x="670" y="-320" as="sourcePoint" />
            <mxPoint x="870" y="-190" as="targetPoint" />
          </mxGeometry>
        </mxCell>
        <mxCell id="yAPlAW5QqEgTK1_JW3Vs-160" value="N" style="resizable=0;html=1;whiteSpace=wrap;align=right;verticalAlign=bottom;" connectable="0" vertex="1" parent="yAPlAW5QqEgTK1_JW3Vs-159">
          <mxGeometry x="1" relative="1" as="geometry" />
        </mxCell>
        <mxCell id="yAPlAW5QqEgTK1_JW3Vs-164" value="" style="endArrow=none;html=1;rounded=0;entryX=0;entryY=1;entryDx=0;entryDy=0;exitX=1;exitY=0.5;exitDx=0;exitDy=0;" edge="1" parent="1" source="yAPlAW5QqEgTK1_JW3Vs-198" target="yAPlAW5QqEgTK1_JW3Vs-67">
          <mxGeometry relative="1" as="geometry">
            <mxPoint x="360" y="-250" as="sourcePoint" />
            <mxPoint x="430" y="-190" as="targetPoint" />
          </mxGeometry>
        </mxCell>
        <mxCell id="yAPlAW5QqEgTK1_JW3Vs-165" value="1" style="resizable=0;html=1;whiteSpace=wrap;align=right;verticalAlign=bottom;" connectable="0" vertex="1" parent="yAPlAW5QqEgTK1_JW3Vs-164">
          <mxGeometry x="1" relative="1" as="geometry" />
        </mxCell>
        <mxCell id="yAPlAW5QqEgTK1_JW3Vs-166" value="" style="endArrow=none;html=1;rounded=0;exitX=0;exitY=0.5;exitDx=0;exitDy=0;entryX=0.5;entryY=1;entryDx=0;entryDy=0;" edge="1" parent="1" source="yAPlAW5QqEgTK1_JW3Vs-198" target="yAPlAW5QqEgTK1_JW3Vs-88">
          <mxGeometry relative="1" as="geometry">
            <mxPoint x="240" y="-250" as="sourcePoint" />
            <mxPoint x="430" y="-190" as="targetPoint" />
          </mxGeometry>
        </mxCell>
        <mxCell id="yAPlAW5QqEgTK1_JW3Vs-167" value="N" style="resizable=0;html=1;whiteSpace=wrap;align=right;verticalAlign=bottom;" connectable="0" vertex="1" parent="yAPlAW5QqEgTK1_JW3Vs-166">
          <mxGeometry x="1" relative="1" as="geometry" />
        </mxCell>
        <mxCell id="yAPlAW5QqEgTK1_JW3Vs-169" value="" style="endArrow=none;html=1;rounded=0;entryX=0;entryY=1;entryDx=0;entryDy=0;exitX=1;exitY=0.5;exitDx=0;exitDy=0;" edge="1" parent="1" source="yAPlAW5QqEgTK1_JW3Vs-195" target="yAPlAW5QqEgTK1_JW3Vs-88">
          <mxGeometry relative="1" as="geometry">
            <mxPoint x="-50" y="-130" as="sourcePoint" />
            <mxPoint x="430" y="-190" as="targetPoint" />
          </mxGeometry>
        </mxCell>
        <mxCell id="yAPlAW5QqEgTK1_JW3Vs-170" value="1" style="resizable=0;html=1;whiteSpace=wrap;align=right;verticalAlign=bottom;" connectable="0" vertex="1" parent="yAPlAW5QqEgTK1_JW3Vs-169">
          <mxGeometry x="1" relative="1" as="geometry" />
        </mxCell>
        <mxCell id="yAPlAW5QqEgTK1_JW3Vs-171" value="" style="endArrow=none;html=1;rounded=0;entryX=0.5;entryY=1;entryDx=0;entryDy=0;exitX=0;exitY=0.5;exitDx=0;exitDy=0;" edge="1" parent="1" source="yAPlAW5QqEgTK1_JW3Vs-195" target="yAPlAW5QqEgTK1_JW3Vs-108">
          <mxGeometry relative="1" as="geometry">
            <mxPoint x="-170" y="-130" as="sourcePoint" />
            <mxPoint x="430" y="-190" as="targetPoint" />
          </mxGeometry>
        </mxCell>
        <mxCell id="yAPlAW5QqEgTK1_JW3Vs-172" value="1" style="resizable=0;html=1;whiteSpace=wrap;align=right;verticalAlign=bottom;" connectable="0" vertex="1" parent="yAPlAW5QqEgTK1_JW3Vs-171">
          <mxGeometry x="1" relative="1" as="geometry" />
        </mxCell>
        <mxCell id="yAPlAW5QqEgTK1_JW3Vs-174" value="" style="endArrow=none;html=1;rounded=0;entryX=0;entryY=1;entryDx=0;entryDy=0;exitX=0.933;exitY=0.5;exitDx=0;exitDy=0;exitPerimeter=0;" edge="1" parent="1" source="yAPlAW5QqEgTK1_JW3Vs-194" target="yAPlAW5QqEgTK1_JW3Vs-1">
          <mxGeometry relative="1" as="geometry">
            <mxPoint x="-100" y="110" as="sourcePoint" />
            <mxPoint x="440" y="-280" as="targetPoint" />
          </mxGeometry>
        </mxCell>
        <mxCell id="yAPlAW5QqEgTK1_JW3Vs-175" value="1" style="resizable=0;html=1;whiteSpace=wrap;align=right;verticalAlign=bottom;" connectable="0" vertex="1" parent="yAPlAW5QqEgTK1_JW3Vs-174">
          <mxGeometry x="1" relative="1" as="geometry" />
        </mxCell>
        <mxCell id="yAPlAW5QqEgTK1_JW3Vs-176" value="" style="endArrow=none;html=1;rounded=0;exitX=0;exitY=0.5;exitDx=0;exitDy=0;entryX=0;entryY=1;entryDx=0;entryDy=0;" edge="1" parent="1" source="yAPlAW5QqEgTK1_JW3Vs-194" target="yAPlAW5QqEgTK1_JW3Vs-108">
          <mxGeometry relative="1" as="geometry">
            <mxPoint x="-220" y="110" as="sourcePoint" />
            <mxPoint x="440" y="-280" as="targetPoint" />
          </mxGeometry>
        </mxCell>
        <mxCell id="yAPlAW5QqEgTK1_JW3Vs-177" value="N" style="resizable=0;html=1;whiteSpace=wrap;align=right;verticalAlign=bottom;" connectable="0" vertex="1" parent="yAPlAW5QqEgTK1_JW3Vs-176">
          <mxGeometry x="1" relative="1" as="geometry" />
        </mxCell>
        <mxCell id="yAPlAW5QqEgTK1_JW3Vs-179" value="" style="endArrow=none;html=1;rounded=0;entryX=0;entryY=0;entryDx=0;entryDy=0;exitX=0.5;exitY=1;exitDx=0;exitDy=0;" edge="1" parent="1" source="yAPlAW5QqEgTK1_JW3Vs-196" target="yAPlAW5QqEgTK1_JW3Vs-1">
          <mxGeometry relative="1" as="geometry">
            <mxPoint x="30" y="-70" as="sourcePoint" />
            <mxPoint x="440" y="-280" as="targetPoint" />
          </mxGeometry>
        </mxCell>
        <mxCell id="yAPlAW5QqEgTK1_JW3Vs-180" value="1" style="resizable=0;html=1;whiteSpace=wrap;align=right;verticalAlign=bottom;" connectable="0" vertex="1" parent="yAPlAW5QqEgTK1_JW3Vs-179">
          <mxGeometry x="1" relative="1" as="geometry" />
        </mxCell>
        <mxCell id="yAPlAW5QqEgTK1_JW3Vs-181" value="" style="endArrow=none;html=1;rounded=0;entryX=0.25;entryY=1;entryDx=0;entryDy=0;exitX=0.5;exitY=0;exitDx=0;exitDy=0;" edge="1" parent="1" source="yAPlAW5QqEgTK1_JW3Vs-196" target="yAPlAW5QqEgTK1_JW3Vs-88">
          <mxGeometry relative="1" as="geometry">
            <mxPoint x="30" y="-130" as="sourcePoint" />
            <mxPoint x="440" y="-280" as="targetPoint" />
          </mxGeometry>
        </mxCell>
        <mxCell id="yAPlAW5QqEgTK1_JW3Vs-182" value="N" style="resizable=0;html=1;whiteSpace=wrap;align=right;verticalAlign=bottom;" connectable="0" vertex="1" parent="yAPlAW5QqEgTK1_JW3Vs-181">
          <mxGeometry x="1" relative="1" as="geometry" />
        </mxCell>
        <mxCell id="yAPlAW5QqEgTK1_JW3Vs-184" value="WRITES" style="shape=rhombus;double=1;perimeter=rhombusPerimeter;whiteSpace=wrap;html=1;align=center;" vertex="1" parent="1">
          <mxGeometry x="430" y="100" width="120" height="60" as="geometry" />
        </mxCell>
        <mxCell id="yAPlAW5QqEgTK1_JW3Vs-185" value="" style="endArrow=none;html=1;rounded=0;entryX=0.75;entryY=1;entryDx=0;entryDy=0;exitX=0;exitY=0.5;exitDx=0;exitDy=0;" edge="1" parent="1" source="yAPlAW5QqEgTK1_JW3Vs-184" target="yAPlAW5QqEgTK1_JW3Vs-1">
          <mxGeometry relative="1" as="geometry">
            <mxPoint x="280" y="-30" as="sourcePoint" />
            <mxPoint x="440" y="-30" as="targetPoint" />
          </mxGeometry>
        </mxCell>
        <mxCell id="yAPlAW5QqEgTK1_JW3Vs-186" value="1" style="resizable=0;html=1;whiteSpace=wrap;align=right;verticalAlign=bottom;" connectable="0" vertex="1" parent="yAPlAW5QqEgTK1_JW3Vs-185">
          <mxGeometry x="1" relative="1" as="geometry" />
        </mxCell>
        <mxCell id="yAPlAW5QqEgTK1_JW3Vs-187" value="" style="endArrow=none;html=1;rounded=0;entryX=0.5;entryY=1;entryDx=0;entryDy=0;exitX=1;exitY=0.5;exitDx=0;exitDy=0;" edge="1" parent="1" source="yAPlAW5QqEgTK1_JW3Vs-184" target="yAPlAW5QqEgTK1_JW3Vs-51">
          <mxGeometry relative="1" as="geometry">
            <mxPoint x="280" y="-30" as="sourcePoint" />
            <mxPoint x="440" y="-30" as="targetPoint" />
          </mxGeometry>
        </mxCell>
        <mxCell id="yAPlAW5QqEgTK1_JW3Vs-188" value="N" style="resizable=0;html=1;whiteSpace=wrap;align=right;verticalAlign=bottom;" connectable="0" vertex="1" parent="yAPlAW5QqEgTK1_JW3Vs-187">
          <mxGeometry x="1" relative="1" as="geometry" />
        </mxCell>
        <mxCell id="yAPlAW5QqEgTK1_JW3Vs-189" value="HAS" style="shape=rhombus;double=1;perimeter=rhombusPerimeter;whiteSpace=wrap;html=1;align=center;" vertex="1" parent="1">
          <mxGeometry x="750" y="-10" width="120" height="60" as="geometry" />
        </mxCell>
        <mxCell id="yAPlAW5QqEgTK1_JW3Vs-190" value="" style="endArrow=none;html=1;rounded=0;entryX=0.407;entryY=0.969;entryDx=0;entryDy=0;entryPerimeter=0;exitX=0.5;exitY=0;exitDx=0;exitDy=0;" edge="1" parent="1" source="yAPlAW5QqEgTK1_JW3Vs-189" target="yAPlAW5QqEgTK1_JW3Vs-3">
          <mxGeometry relative="1" as="geometry">
            <mxPoint x="280" y="-30" as="sourcePoint" />
            <mxPoint x="440" y="-30" as="targetPoint" />
          </mxGeometry>
        </mxCell>
        <mxCell id="yAPlAW5QqEgTK1_JW3Vs-191" value="1" style="resizable=0;html=1;whiteSpace=wrap;align=right;verticalAlign=bottom;" connectable="0" vertex="1" parent="yAPlAW5QqEgTK1_JW3Vs-190">
          <mxGeometry x="1" relative="1" as="geometry" />
        </mxCell>
        <mxCell id="yAPlAW5QqEgTK1_JW3Vs-192" value="" style="endArrow=none;html=1;rounded=0;entryX=0.75;entryY=1;entryDx=0;entryDy=0;exitX=0.5;exitY=1;exitDx=0;exitDy=0;" edge="1" parent="1" source="yAPlAW5QqEgTK1_JW3Vs-189" target="yAPlAW5QqEgTK1_JW3Vs-51">
          <mxGeometry relative="1" as="geometry">
            <mxPoint x="280" y="-30" as="sourcePoint" />
            <mxPoint x="440" y="-30" as="targetPoint" />
          </mxGeometry>
        </mxCell>
        <mxCell id="yAPlAW5QqEgTK1_JW3Vs-193" value="N" style="resizable=0;html=1;whiteSpace=wrap;align=right;verticalAlign=bottom;" connectable="0" vertex="1" parent="yAPlAW5QqEgTK1_JW3Vs-192">
          <mxGeometry x="1" relative="1" as="geometry" />
        </mxCell>
        <mxCell id="yAPlAW5QqEgTK1_JW3Vs-194" value="PAYS" style="shape=rhombus;double=1;perimeter=rhombusPerimeter;whiteSpace=wrap;html=1;align=center;" vertex="1" parent="1">
          <mxGeometry x="-200" y="20" width="120" height="60" as="geometry" />
        </mxCell>
        <mxCell id="yAPlAW5QqEgTK1_JW3Vs-195" value="PAID FOR" style="shape=rhombus;double=1;perimeter=rhombusPerimeter;whiteSpace=wrap;html=1;align=center;" vertex="1" parent="1">
          <mxGeometry x="-170" y="-140" width="120" height="60" as="geometry" />
        </mxCell>
        <mxCell id="yAPlAW5QqEgTK1_JW3Vs-196" value="BOOKS" style="shape=rhombus;double=1;perimeter=rhombusPerimeter;whiteSpace=wrap;html=1;align=center;" vertex="1" parent="1">
          <mxGeometry x="-30" y="-120" width="120" height="60" as="geometry" />
        </mxCell>
        <mxCell id="yAPlAW5QqEgTK1_JW3Vs-198" value="IS BOOKED" style="shape=rhombus;double=1;perimeter=rhombusPerimeter;whiteSpace=wrap;html=1;align=center;" vertex="1" parent="1">
          <mxGeometry x="210" y="-200" width="120" height="60" as="geometry" />
        </mxCell>
        <mxCell id="yAPlAW5QqEgTK1_JW3Vs-199" value="HAS" style="shape=rhombus;double=1;perimeter=rhombusPerimeter;whiteSpace=wrap;html=1;align=center;" vertex="1" parent="1">
          <mxGeometry x="600" y="-310" width="120" height="60" as="geometry" />
        </mxCell>
      </root>
    </mxGraphModel>
  </diagram>
</mxfile>
